<?xml version="1.0" standalone="no"?>
<!DOCTYPE svg PUBLIC "-//W3C//DTD SVG 20010904//EN"
 "http://www.w3.org/TR/2001/REC-SVG-20010904/DTD/svg10.dtd">
<svg version="1.0" xmlns="http://www.w3.org/2000/svg"
 width="6312.000000pt" height="1892.000000pt" viewBox="0 0 6312.000000 1892.000000"
 preserveAspectRatio="xMidYMid meet">

<g transform="translate(0.000000,1892.000000) scale(0.100000,-0.100000)"
fill="#000000" stroke="none">
<path d="M8930 18893 l-445 -24 -505 -79 -505 -80 -475 -128 c-473 -128 -477
-129 -925 -301 -444 -170 -456 -176 -894 -398 -439 -223 -449 -229 -862 -497
-413 -268 -425 -277 -822 -598 -392 -318 -411 -335 -734 -660 -317 -318 -345
-350 -643 -718 -302 -374 -318 -397 -583 -805 -271 -416 -275 -424 -499 -865
-224 -442 -227 -448 -402 -905 l-176 -460 -125 -470 -126 -470 -79 -495 -78
-495 -26 -492 -26 -493 26 -492 26 -493 78 -495 79 -495 126 -470 126 -470
176 -460 176 -460 232 -455 c228 -447 236 -462 495 -860 251 -386 277 -422
558 -770 285 -353 307 -377 666 -738 366 -369 376 -378 756 -686 380 -308 391
-316 810 -588 419 -271 431 -278 860 -495 429 -218 441 -223 895 -397 l460
-176 470 -125 470 -126 495 -79 495 -78 492 -26 493 -26 492 26 493 26 495 78
495 79 470 126 470 126 460 176 460 176 455 232 c447 228 462 236 860 495 386
251 422 277 770 558 353 285 377 307 738 666 369 366 378 376 686 756 308 380
316 391 588 810 271 419 278 431 495 860 218 429 223 441 397 895 l176 460
125 470 126 470 79 495 78 495 26 493 26 492 -26 493 -26 492 -78 495 -79 495
-126 470 -126 470 -176 460 -176 460 -232 455 c-228 448 -236 461 -498 864
-260 400 -272 417 -590 810 -317 390 -335 410 -659 733 -318 317 -350 345
-718 643 -374 302 -397 318 -805 583 -417 271 -424 275 -865 499 -441 224
-449 227 -905 402 l-460 176 -470 125 -470 126 -495 79 -495 78 -495 26 c-272
14 -513 26 -535 25 -22 -1 -240 -12 -485 -26z m-158 -5424 c159 -34 300 -163
349 -320 19 -59 19 -156 19 -3689 0 -3533 0 -3630 -19 -3689 -87 -281 -414
-413 -675 -273 -65 35 -153 123 -188 188 -63 116 -58 -180 -58 3774 0 3939 -4
3653 56 3772 15 29 52 78 83 109 115 115 274 162 433 128z m3190 -799 c146
-45 248 -142 309 -295 l24 -60 3 -2615 c2 -1911 0 -2633 -9 -2683 -41 -249
-285 -428 -532 -389 -195 30 -360 188 -397 381 -14 77 -14 5216 1 5296 51 275
334 448 601 365z m-4769 -385 c182 -38 333 -192 367 -374 14 -78 14 -4427 -1
-4507 -27 -147 -126 -275 -265 -341 -78 -37 -81 -38 -199 -38 -118 0 -121 1
-198 37 -141 67 -239 194 -266 342 -8 42 -11 721 -11 2255 0 1869 2 2206 15
2264 29 140 122 260 250 323 109 54 190 64 308 39z m3178 -793 c163 -43 290
-171 334 -337 13 -52 15 -237 15 -1500 0 -934 -4 -1455 -11 -1484 -30 -130
-133 -258 -258 -319 -75 -37 -77 -37 -202 -37 -125 0 -125 0 -203 38 -101 51
-172 122 -223 223 l-38 78 -3 1475 c-3 1650 -8 1543 68 1659 115 178 317 257
521 204z m-4736 -787 c167 -44 288 -163 339 -334 24 -80 24 -1335 1 -1426 -22
-81 -59 -145 -121 -208 -166 -167 -426 -189 -612 -53 -72 53 -113 104 -155
193 l-32 68 -3 690 c-2 664 -2 692 17 755 73 238 323 378 566 315z m7884 0
c163 -43 289 -166 335 -326 15 -50 16 -135 14 -745 l-3 -689 -36 -75 c-44 -91
-90 -146 -164 -194 -192 -128 -437 -103 -599 61 -57 58 -108 148 -125 223 -7
29 -11 283 -11 695 0 716 0 710 62 827 53 100 170 191 288 224 62 17 174 17
239 -1z"/>
<path d="M23574 12582 c3 -9 645 -1498 1425 -3307 l1420 -3290 759 -3 759 -2
1428 3297 c785 1814 1429 3304 1432 3311 4 10 -148 12 -757 10 l-763 -3 -1017
-2353 c-559 -1294 -1021 -2353 -1026 -2354 -5 0 -460 1059 -1011 2353 l-1002
2354 -826 3 c-785 2 -826 1 -821 -16z"/>
<path d="M31360 9290 l0 -3310 765 0 765 0 0 3310 0 3310 -765 0 -765 0 0
-3310z"/>
<path d="M34460 9290 l0 -3310 2425 0 2425 0 0 620 0 620 -1657 2 -1658 3 -3
2688 -2 2687 -765 0 -765 0 0 -3310z"/>
<path d="M40170 9290 l0 -3310 2425 0 2425 0 0 620 0 620 -1660 0 -1660 0 0
2690 0 2690 -765 0 -765 0 0 -3310z"/>
<path d="M46528 9307 c-807 -1810 -1470 -3300 -1473 -3309 -7 -17 34 -18 777
-18 l784 0 294 708 295 707 1535 0 1535 0 292 -705 292 -705 804 -3 805 -2
-227 507 c-125 280 -791 1769 -1481 3311 l-1253 2802 -756 0 -756 0 -1467
-3293z m2742 513 c282 -679 514 -1241 517 -1247 4 -10 -209 -13 -1047 -13
-838 0 -1051 3 -1047 13 3 6 236 566 517 1242 282 677 517 1241 522 1255 10
24 10 24 18 5 4 -11 238 -576 520 -1255z"/>
<path d="M53160 9290 l0 -3310 765 0 765 0 0 3310 0 3310 -765 0 -765 0 0
-3310z"/>
<path d="M56260 9290 l0 -3310 755 0 755 0 2 2008 3 2007 1649 -2007 1649
-2008 629 0 628 0 0 3310 0 3310 -755 0 -755 0 -2 -2006 -3 -2006 -1644 2006
-1643 2006 -634 0 -634 0 0 -3310z"/>
</g>
</svg>
