<svg version="1.1" id="Layer_1" xmlns="http://www.w3.org/2000/svg" xmlns:xlink="http://www.w3.org/1999/xlink" x="0px" y="0px"
	 width="100%" viewBox="0 0 6312 1892" enable-background="new 0 0 6312 1892" xml:space="preserve">
<path fill="#000000" opacity="1.000000" stroke="none" 
	d="
M1006.000000,2.000000 
	C2775.223633,2.000000 4544.447266,2.000000 6313.835449,2.000000 
	C6313.835449,632.517883 6313.835449,1263.035767 6313.835449,1894.000000 
	C4551.258301,1894.000000 2788.516357,1894.000000 1024.364746,1893.218262 
	C1025.406494,1891.734375 1027.822876,1890.634277 1030.316895,1890.413818 
	C1035.277466,1889.975220 1040.331421,1890.416504 1045.256958,1889.789307 
	C1058.391968,1888.116943 1071.532593,1886.377197 1084.574463,1884.109497 
	C1110.668945,1879.572266 1137.014526,1875.939575 1162.676147,1869.589111 
	C1195.154663,1861.551636 1227.950928,1854.285889 1259.284180,1842.086548 
	C1284.646973,1832.211792 1310.700562,1823.791016 1335.220337,1812.141968 
	C1377.819580,1791.903564 1419.687378,1770.304077 1459.657104,1744.812500 
	C1502.721436,1717.347046 1543.208008,1686.569092 1580.919800,1652.645386 
	C1613.233643,1623.577515 1644.916260,1593.282959 1671.756714,1558.667725 
	C1690.669067,1534.276978 1711.634155,1511.510376 1728.171753,1485.229004 
	C1750.119995,1450.349121 1774.231201,1416.775391 1790.864136,1378.771484 
	C1791.658325,1376.956909 1792.885376,1375.336670 1793.770020,1373.555908 
	C1801.163574,1358.672485 1809.646362,1344.212158 1815.682739,1328.795044 
	C1833.214233,1284.018188 1852.170288,1239.701416 1862.710571,1192.470459 
	C1867.112305,1172.746582 1873.047974,1153.352905 1877.100342,1133.566406 
	C1880.884277,1115.091187 1883.409424,1096.336182 1885.911987,1077.627075 
	C1888.281128,1059.916992 1890.004150,1042.117065 1891.790405,1024.334351 
	C1892.354370,1018.721436 1892.096191,1013.030884 1892.402710,1007.386108 
	C1893.445068,988.188110 1895.459473,968.993225 1895.424683,949.800110 
	C1895.387329,929.270142 1892.824951,908.753418 1892.503418,888.213074 
	C1892.133423,864.576843 1889.986328,841.213135 1885.794067,817.978271 
	C1881.032959,791.590820 1877.439941,764.950378 1871.576050,738.815430 
	C1865.334351,710.995667 1858.248413,683.235535 1849.301514,656.186829 
	C1839.199463,625.645386 1828.200317,595.191284 1814.706665,566.034058 
	C1797.839722,529.587769 1780.616089,493.131958 1758.774780,459.211548 
	C1744.191284,436.562531 1730.884277,412.900726 1714.436523,391.684082 
	C1684.115601,352.571869 1653.880005,313.213135 1617.141602,279.573730 
	C1609.038818,272.154419 1601.671143,263.938293 1593.728271,256.336334 
	C1586.047363,248.985138 1578.485474,241.410095 1570.132080,234.878937 
	C1541.633545,212.597183 1514.997681,187.952621 1484.230957,168.531738 
	C1449.940674,146.886734 1416.795776,123.354500 1379.440918,106.937965 
	C1377.625610,106.140182 1375.999878,104.921692 1374.217163,104.037880 
	C1359.326172,96.655655 1344.856323,88.187492 1329.434204,82.158043 
	C1284.650391,64.649483 1240.332275,45.697498 1193.089966,35.205460 
	C1173.687988,30.896467 1154.571289,25.299690 1135.162842,21.024258 
	C1122.249268,18.179554 1109.100830,16.213015 1095.965454,14.604836 
	C1072.964478,11.788788 1050.343872,5.841480 1026.939697,6.258465 
	C1020.631531,6.370858 1014.303162,5.972272 1008.003662,5.529822 
	C1006.346252,5.413419 1003.489990,4.960085 1006.000000,2.000000 
M5811.765137,701.260193 
	C5793.413574,678.977966 5775.062500,656.695801 5756.975098,634.734009 
	C5714.551758,634.734009 5672.641602,634.734009 5630.399902,634.734009 
	C5630.399902,855.818665 5630.399902,1076.498901 5630.399902,1297.166748 
	C5680.992676,1297.166748 5730.845215,1297.166748 5781.670410,1297.166748 
	C5781.670410,1230.436279 5781.670410,1164.204346 5781.670410,1097.972290 
	C5781.670410,1031.809326 5781.670410,965.646362 5781.670410,897.369629 
	C5784.081543,899.749084 5785.002441,900.506897 5785.744629,901.411682 
	C5850.615234,980.513855 5915.434082,1059.658203 5980.342285,1138.729248 
	C6022.282227,1189.821045 6064.395020,1240.770752 6106.276855,1291.910278 
	C6109.466309,1295.804932 6112.378418,1297.866699 6117.776367,1297.824707 
	C6155.437012,1297.531494 6193.101074,1297.684326 6230.763672,1297.630615 
	C6232.951660,1297.627441 6235.139160,1297.069214 6237.192383,1296.787720 
	C6239.298828,1265.672363 6238.257324,642.469971 6236.145020,634.821045 
	C6186.256836,634.821045 6136.382812,634.821045 6085.621582,634.821045 
	C6085.621582,767.724792 6085.621582,900.141663 6085.621582,1032.558472 
	C6084.800293,1033.085083 6083.979492,1033.611572 6083.158203,1034.138062 
	C6082.019531,1032.240479 6081.093750,1030.169800 6079.710449,1028.471436 
	C6061.878906,1006.582336 6043.992676,984.738037 6026.101074,962.897949 
	C5986.738770,914.848877 5947.356445,866.816406 5908.000488,818.762451 
	C5876.222168,779.960571 5844.470215,741.137268 5811.765137,701.260193 
M4879.000000,634.328735 
	C4853.686523,634.328735 4828.373535,634.328735 4802.691406,634.328735 
	C4704.232910,855.223022 4605.889160,1075.860596 4507.197266,1297.279419 
	C4560.603027,1297.279419 4612.787109,1297.279419 4665.263184,1297.279419 
	C4684.930176,1250.037476 4704.548828,1202.911255 4724.020508,1156.138916 
	C4826.902832,1156.138916 4928.803711,1156.138916 5030.737793,1156.138916 
	C5050.456543,1203.633789 5070.015137,1250.743408 5089.359863,1297.337280 
	C5132.670410,1299.183105 5241.750488,1298.328491 5250.634277,1295.920776 
	C5152.079590,1075.499512 5053.578613,855.199463 4954.822754,634.328735 
	C4930.266113,634.328735 4905.633301,634.328735 4879.000000,634.328735 
M2503.840820,969.176514 
	C2515.706299,996.604614 2527.613281,1024.015015 2539.429199,1051.464355 
	C2573.687988,1131.048828 2607.904053,1210.651489 2642.172852,1290.231689 
	C2643.311523,1292.875610 2644.836670,1295.353027 2645.896484,1297.366211 
	C2696.942139,1297.366211 2746.901367,1297.366211 2797.355469,1297.366211 
	C2892.931885,1076.560669 2988.475342,855.831116 3084.206055,634.668579 
	C3032.209717,634.668579 2981.592529,634.668579 2930.862305,634.668579 
	C2863.050537,791.532227 2795.343750,948.152405 2726.949463,1106.363525 
	C2659.437744,947.819641 2592.733643,791.172119 2526.259766,635.065308 
	C2470.404785,635.065308 2415.400879,635.065308 2359.550049,635.065308 
	C2407.690674,746.598267 2455.429688,857.200073 2503.840820,969.176514 
M3935.673828,1219.000244 
	C3935.673828,1203.444946 3935.673828,1187.889526 3935.673828,1171.401123 
	C3824.451416,1171.401123 3714.332275,1171.401123 3603.343018,1171.401123 
	C3603.343018,991.996765 3603.343018,813.547302 3603.343018,634.928345 
	C3551.343262,634.928345 3500.222900,634.928345 3448.864746,634.928345 
	C3448.864746,855.942993 3448.864746,1076.355591 3448.864746,1297.177002 
	C3611.163818,1297.177002 3772.923828,1297.177002 3935.673828,1297.177002 
	C3935.673828,1271.462280 3935.673828,1246.231323 3935.673828,1219.000244 
M4019.660645,776.999878 
	C4019.775391,949.956055 4019.889648,1122.912231 4020.024658,1295.868408 
	C4020.024902,1296.136719 4020.295654,1296.436157 4020.502441,1296.664307 
	C4020.723145,1296.907715 4021.017822,1297.083862 4021.134277,1297.175293 
	C4182.799316,1297.175293 4344.318359,1297.175293 4505.807617,1297.175293 
	C4505.807617,1255.204224 4505.807617,1213.729980 4505.807617,1171.554688 
	C4395.067871,1171.554688 4284.895508,1171.554688 4173.670898,1171.554688 
	C4173.670898,1155.979614 4173.670898,1141.087280 4173.670898,1126.194946 
	C4173.670898,1111.531006 4173.670898,1096.867188 4173.670898,1082.203247 
	C4173.670898,1067.206055 4173.670898,1052.208862 4173.670898,1037.211670 
	C4173.670898,1022.214539 4173.670898,1007.217346 4173.670898,992.220215 
	C4173.670898,977.223022 4173.670898,962.225891 4173.670898,947.228699 
	C4173.670898,932.564819 4173.670898,917.900879 4173.670898,903.237000 
	C4173.670898,888.239807 4173.670898,873.242676 4173.670898,858.245483 
	C4173.670898,843.248291 4173.670898,828.251160 4173.670898,813.253967 
	C4173.670898,798.256775 4173.670898,783.259644 4173.670898,768.262451 
	C4173.670898,753.598572 4173.670898,738.934631 4173.670898,724.270752 
	C4173.670898,709.273560 4173.704590,694.276306 4173.661133,679.279236 
	C4173.618164,664.437988 4173.861328,649.584595 4173.500488,634.806458 
	C4121.618652,634.806458 4071.082764,634.806458 4019.660645,634.806458 
	C4019.660645,681.851318 4019.660645,728.425537 4019.660645,776.999878 
M5472.339844,945.000122 
	C5472.227539,842.054199 5472.115234,739.108337 5471.982910,636.162415 
	C5471.982910,635.890259 5471.726562,635.585449 5471.522461,635.355469 
	C5471.305176,635.110168 5471.008301,634.935425 5470.921387,634.867188 
	C5420.239746,634.867188 5369.734863,634.867188 5319.310059,634.867188 
	C5317.241699,649.661255 5317.937012,1290.539673 5319.906738,1297.157349 
	C5370.486328,1297.157349 5421.018066,1297.157349 5472.339844,1297.157349 
	C5472.339844,1180.097290 5472.339844,1063.548706 5472.339844,945.000122 
M3175.001709,634.329346 
	C3163.098145,634.329346 3151.194824,634.329346 3139.466064,634.329346 
	C3137.405273,647.842957 3137.949707,1290.314697 3139.862793,1297.191528 
	C3190.404541,1297.191528 3240.932861,1297.191528 3291.390869,1297.191528 
	C3293.289307,1283.588745 3292.684082,641.788635 3290.709473,634.329346 
	C3252.890625,634.329346 3214.945801,634.329346 3175.001709,634.329346 
z"/>
<path fill="#FFFFFF" opacity="1.000000" stroke="none" 
	d="
M1005.062683,2.000000 
	C1003.489990,4.960085 1006.346252,5.413419 1008.003662,5.529822 
	C1014.303162,5.972272 1020.631531,6.370858 1026.939697,6.258465 
	C1050.343872,5.841480 1072.964478,11.788788 1095.965454,14.604836 
	C1109.100830,16.213015 1122.249268,18.179554 1135.162842,21.024258 
	C1154.571289,25.299690 1173.687988,30.896467 1193.089966,35.205460 
	C1240.332275,45.697498 1284.650391,64.649483 1329.434204,82.158043 
	C1344.856323,88.187492 1359.326172,96.655655 1374.217163,104.037880 
	C1375.999878,104.921692 1377.625610,106.140182 1379.440918,106.937965 
	C1416.795776,123.354500 1449.940674,146.886734 1484.230957,168.531738 
	C1514.997681,187.952621 1541.633545,212.597183 1570.132080,234.878937 
	C1578.485474,241.410095 1586.047363,248.985138 1593.728271,256.336334 
	C1601.671143,263.938293 1609.038818,272.154419 1617.141602,279.573730 
	C1653.880005,313.213135 1684.115601,352.571869 1714.436523,391.684082 
	C1730.884277,412.900726 1744.191284,436.562531 1758.774780,459.211548 
	C1780.616089,493.131958 1797.839722,529.587769 1814.706665,566.034058 
	C1828.200317,595.191284 1839.199463,625.645386 1849.301514,656.186829 
	C1858.248413,683.235535 1865.334351,710.995667 1871.576050,738.815430 
	C1877.439941,764.950378 1881.032959,791.590820 1885.794067,817.978271 
	C1889.986328,841.213135 1892.133423,864.576843 1892.503418,888.213074 
	C1892.824951,908.753418 1895.387329,929.270142 1895.424683,949.800110 
	C1895.459473,968.993225 1893.445068,988.188110 1892.402710,1007.386108 
	C1892.096191,1013.030884 1892.354370,1018.721436 1891.790405,1024.334351 
	C1890.004150,1042.117065 1888.281128,1059.916992 1885.911987,1077.627075 
	C1883.409424,1096.336182 1880.884277,1115.091187 1877.100342,1133.566406 
	C1873.047974,1153.352905 1867.112305,1172.746582 1862.710571,1192.470459 
	C1852.170288,1239.701416 1833.214233,1284.018188 1815.682739,1328.795044 
	C1809.646362,1344.212158 1801.163574,1358.672485 1793.770020,1373.555908 
	C1792.885376,1375.336670 1791.658325,1376.956909 1790.864136,1378.771484 
	C1774.231201,1416.775391 1750.119995,1450.349121 1728.171753,1485.229004 
	C1711.634155,1511.510376 1690.669067,1534.276978 1671.756714,1558.667725 
	C1644.916260,1593.282959 1613.233643,1623.577515 1580.919800,1652.645386 
	C1543.208008,1686.569092 1502.721436,1717.347046 1459.657104,1744.812500 
	C1419.687378,1770.304077 1377.819580,1791.903564 1335.220337,1812.141968 
	C1310.700562,1823.791016 1284.646973,1832.211792 1259.284180,1842.086548 
	C1227.950928,1854.285889 1195.154663,1861.551636 1162.676147,1869.589111 
	C1137.014526,1875.939575 1110.668945,1879.572266 1084.574463,1884.109497 
	C1071.532593,1886.377197 1058.391968,1888.116943 1045.256958,1889.789307 
	C1040.331421,1890.416504 1035.277466,1889.975220 1030.316895,1890.413818 
	C1027.822876,1890.634277 1025.406494,1891.734375 1023.477539,1893.218262 
	C974.624878,1894.000000 925.249756,1894.000000 875.551514,1893.245605 
	C873.173401,1891.770630 871.158875,1890.613892 869.055115,1890.418579 
	C864.429932,1889.989136 859.691833,1890.504395 855.118469,1889.829956 
	C822.693115,1885.048584 790.164246,1880.791748 757.941528,1874.878784 
	C737.779114,1871.178955 718.180420,1864.510132 698.173889,1859.836426 
	C652.051575,1849.061279 608.222473,1831.409668 565.111633,1812.665405 
	C527.432800,1796.283081 490.475616,1777.685181 455.853119,1755.088013 
	C434.687439,1741.273804 412.440948,1728.847168 392.577026,1713.363647 
	C353.287781,1682.738647 313.707977,1652.295898 279.771179,1615.389893 
	C268.054840,1602.648438 254.282135,1591.678101 243.406067,1578.306763 
	C213.461365,1541.491577 182.248688,1505.644897 157.440781,1464.821777 
	C141.563675,1438.694946 124.317467,1413.461426 111.447762,1385.549805 
	C103.104286,1367.454712 91.836800,1350.596069 84.631989,1332.110596 
	C68.381950,1290.417847 50.010090,1249.429321 39.723999,1205.567627 
	C34.578640,1183.626831 27.813343,1162.053467 23.055674,1140.038330 
	C19.003599,1121.288208 16.731422,1102.150635 13.759560,1083.170776 
	C11.865804,1071.076172 9.684957,1059.001953 8.452317,1046.835571 
	C7.216723,1034.639893 7.039194,1022.338806 6.305930,1010.089417 
	C6.129458,1007.141296 5.589483,1004.214905 5.216674,1001.278564 
	C4.144446,1001.519043 3.072221,1001.759521 1.999998,1002.000000 
	C2.000000,997.258850 2.000000,992.517761 2.717520,987.612305 
	C5.387403,982.356812 5.124351,971.967957 2.894917,967.776001 
	C2.860068,967.710571 2.309754,967.919250 1.999998,968.000000 
	C2.000000,949.958191 2.000000,931.916443 2.823249,913.281738 
	C4.318845,910.582520 5.479067,908.500671 5.585904,906.366089 
	C6.398956,890.121521 6.397189,873.811829 7.852624,857.630615 
	C9.245325,842.146973 11.762489,826.738770 14.363524,811.395447 
	C18.622742,786.270325 21.976931,760.877380 28.210764,736.229126 
	C36.983379,701.542603 44.561970,666.433105 58.079723,633.059082 
	C67.547905,609.683044 75.023758,585.398132 85.867683,562.703247 
	C106.201157,520.148071 126.433426,477.425995 153.574371,438.509064 
	C166.687012,419.707092 178.960907,400.314423 192.278778,381.663513 
	C199.983276,370.873840 209.466721,361.366180 217.358475,350.696442 
	C246.633499,311.116241 282.181000,277.241058 318.175629,244.312729 
	C347.446594,217.535278 378.573273,192.413696 411.937988,170.332672 
	C452.470886,143.507690 493.729736,118.101456 537.762329,97.375854 
	C547.987000,92.563210 557.702942,86.503311 568.218079,82.502838 
	C612.224365,65.760742 655.455017,46.756996 701.614990,36.152248 
	C722.283264,31.403948 742.742432,25.729980 763.450562,21.176670 
	C776.041260,18.408228 788.899475,16.788715 801.684448,14.986245 
	C824.948914,11.706347 847.912537,6.025684 871.629761,6.273469 
	C877.939758,6.339394 884.263367,5.965957 890.563904,5.543056 
	C892.381287,5.421068 895.639893,5.846797 894.000000,2.000000 
	C930.708435,2.000000 967.416931,2.000000 1005.062683,2.000000 
M823.539734,712.999756 
	C823.539734,906.606873 823.539673,1100.213989 823.540833,1293.821167 
	C823.540894,1297.486572 823.456421,1301.155396 823.580017,1304.816895 
	C824.320129,1326.745605 839.831299,1345.334106 860.912109,1349.625122 
	C883.065247,1354.134277 905.161194,1342.583008 914.138428,1321.881226 
	C917.537048,1314.043823 918.047363,1305.841553 918.045410,1297.436035 
	C917.991821,1064.841064 918.002869,832.246033 917.998291,599.651062 
	C917.998230,596.652588 918.069641,593.645630 917.881531,590.656860 
	C915.774048,557.161011 879.783691,536.292358 849.835144,551.432434 
	C832.140869,560.377502 823.516724,575.175354 823.532043,595.035339 
	C823.561829,633.690125 823.540100,672.344849 823.539734,712.999756 
M1164.309692,1227.075684 
	C1186.272217,1238.222412 1210.839478,1230.536987 1223.573730,1213.758667 
	C1231.201294,1203.708862 1233.479004,1192.295654 1233.473145,1179.949707 
	C1233.393188,1012.633850 1233.419434,845.317993 1233.417725,678.002136 
	C1233.417725,675.669250 1233.502197,673.329956 1233.364502,671.004456 
	C1231.875977,645.877686 1213.089844,626.729736 1188.792725,625.530701 
	C1160.068481,624.113220 1138.613037,645.227722 1138.601685,675.388611 
	C1138.538086,844.370911 1138.573364,1013.353271 1138.571533,1182.335571 
	C1138.571289,1201.523315 1146.218384,1216.448608 1164.309692,1227.075684 
M760.171143,1083.000000 
	C760.171143,1026.019653 760.172363,969.039368 760.170837,912.059021 
	C760.168945,845.082092 760.266968,778.104858 760.100708,711.128296 
	C760.049011,690.299011 745.983093,672.185547 726.342529,666.533020 
	C706.416931,660.798584 685.240356,668.498657 673.705933,685.722412 
	C667.963989,694.296692 665.741333,703.757935 665.762146,714.083801 
	C665.895996,780.394104 665.829163,846.704712 665.828918,913.015259 
	C665.828674,989.322327 665.753113,1065.629639 665.958496,1141.936035 
	C665.976990,1148.805542 666.732971,1156.052246 669.002380,1162.467163 
	C676.578308,1183.881592 698.811829,1195.924683 721.929077,1192.014771 
	C743.224548,1188.413086 759.784912,1169.156372 760.098328,1146.977783 
	C760.390198,1126.322266 760.167419,1105.659546 760.171143,1083.000000 
M1006.347351,748.924072 
	C988.304810,759.159790 980.846863,774.947510 980.886475,795.348083 
	C981.059326,884.330444 980.952881,973.313354 980.988708,1062.296021 
	C980.990173,1065.951294 981.201721,1069.631470 981.655334,1073.257446 
	C985.103516,1100.821045 1012.356628,1119.414673 1039.328857,1112.676636 
	C1061.862671,1107.047363 1075.728882,1088.685059 1075.743164,1064.026855 
	C1075.795410,974.044373 1075.390747,884.059570 1075.941895,794.080505 
	C1076.174683,756.078857 1039.677734,733.125183 1006.347351,748.924072 
M1296.234741,903.000366 
	C1296.236206,931.284729 1295.890747,959.574341 1296.325317,987.852051 
	C1296.890625,1024.639282 1335.362671,1046.995361 1366.907959,1029.029785 
	C1383.436890,1019.616333 1390.964233,1004.753235 1391.003906,986.003662 
	C1391.085083,947.736816 1391.115479,909.469238 1390.925293,871.203125 
	C1390.899170,865.957153 1390.138550,860.520813 1388.611572,855.509827 
	C1382.032227,833.917114 1360.447510,819.807861 1338.753418,822.475952 
	C1315.028687,825.393799 1297.275879,844.259155 1296.336426,868.060791 
	C1295.903687,879.024963 1296.244629,890.019775 1296.234741,903.000366 
M507.992859,879.125977 
	C507.992859,902.418396 507.986511,925.710815 507.995239,949.003235 
	C508.000366,962.645691 507.655151,976.301147 508.129150,989.927795 
	C509.001587,1015.007874 529.840698,1035.051147 554.823975,1035.380127 
	C580.128418,1035.713135 601.963135,1015.424683 602.275208,989.905762 
	C602.775635,948.984558 602.800598,908.047241 602.240540,867.127441 
	C601.902954,842.461548 581.054565,822.828735 556.289856,822.253906 
	C531.454346,821.677307 509.847473,841.362061 508.147247,866.199280 
	C507.897736,869.844543 508.034790,873.516296 507.992859,879.125977 
z"/>
<path fill="#000000" opacity="1.000000" stroke="none" 
	d="
M893.062683,2.000000 
	C895.639893,5.846797 892.381287,5.421068 890.563904,5.543056 
	C884.263367,5.965957 877.939758,6.339394 871.629761,6.273469 
	C847.912537,6.025684 824.948914,11.706347 801.684448,14.986245 
	C788.899475,16.788715 776.041260,18.408228 763.450562,21.176670 
	C742.742432,25.729980 722.283264,31.403948 701.614990,36.152248 
	C655.455017,46.756996 612.224365,65.760742 568.218079,82.502838 
	C557.702942,86.503311 547.987000,92.563210 537.762329,97.375854 
	C493.729736,118.101456 452.470886,143.507690 411.937988,170.332672 
	C378.573273,192.413696 347.446594,217.535278 318.175629,244.312729 
	C282.181000,277.241058 246.633499,311.116241 217.358475,350.696442 
	C209.466721,361.366180 199.983276,370.873840 192.278778,381.663513 
	C178.960907,400.314423 166.687012,419.707092 153.574371,438.509064 
	C126.433426,477.425995 106.201157,520.148071 85.867683,562.703247 
	C75.023758,585.398132 67.547905,609.683044 58.079723,633.059082 
	C44.561970,666.433105 36.983379,701.542603 28.210764,736.229126 
	C21.976931,760.877380 18.622742,786.270325 14.363524,811.395447 
	C11.762489,826.738770 9.245325,842.146973 7.852624,857.630615 
	C6.397189,873.811829 6.398956,890.121521 5.585904,906.366089 
	C5.479067,908.500671 4.318845,910.582520 2.823249,912.344360 
	C2.000000,608.813965 2.000000,305.627930 2.000000,2.000000 
	C298.708313,2.000000 595.416809,2.000000 893.062683,2.000000 
z"/>
<path fill="#010101" opacity="1.000000" stroke="none" 
	d="
M1.999998,1002.937317 
	C3.072221,1001.759521 4.144446,1001.519043 5.216674,1001.278564 
	C5.589483,1004.214905 6.129458,1007.141296 6.305930,1010.089417 
	C7.039194,1022.338806 7.216723,1034.639893 8.452317,1046.835571 
	C9.684957,1059.001953 11.865804,1071.076172 13.759560,1083.170776 
	C16.731422,1102.150635 19.003599,1121.288208 23.055674,1140.038330 
	C27.813343,1162.053467 34.578640,1183.626831 39.723999,1205.567627 
	C50.010090,1249.429321 68.381950,1290.417847 84.631989,1332.110596 
	C91.836800,1350.596069 103.104286,1367.454712 111.447762,1385.549805 
	C124.317467,1413.461426 141.563675,1438.694946 157.440781,1464.821777 
	C182.248688,1505.644897 213.461365,1541.491577 243.406067,1578.306763 
	C254.282135,1591.678101 268.054840,1602.648438 279.771179,1615.389893 
	C313.707977,1652.295898 353.287781,1682.738647 392.577026,1713.363647 
	C412.440948,1728.847168 434.687439,1741.273804 455.853119,1755.088013 
	C490.475616,1777.685181 527.432800,1796.283081 565.111633,1812.665405 
	C608.222473,1831.409668 652.051575,1849.061279 698.173889,1859.836426 
	C718.180420,1864.510132 737.779114,1871.178955 757.941528,1874.878784 
	C790.164246,1880.791748 822.693115,1885.048584 855.118469,1889.829956 
	C859.691833,1890.504395 864.429932,1889.989136 869.055115,1890.418579 
	C871.158875,1890.613892 873.173401,1891.770630 874.614197,1893.245605 
	C583.477539,1894.000000 292.955017,1894.000000 2.000000,1894.000000 
	C2.000000,1597.291626 2.000000,1300.583130 1.999998,1002.937317 
z"/>
<path fill="#505050" opacity="1.000000" stroke="none" 
	d="
M1.999998,968.899963 
	C2.309754,967.919250 2.860068,967.710571 2.894917,967.776001 
	C5.124351,971.967957 5.387403,982.356812 2.717520,986.723999 
	C2.000000,980.599976 2.000000,975.199951 1.999998,968.899963 
z"/>
<path fill="#FEFEFE" opacity="1.000000" stroke="none" 
	d="
M5812.235840,701.791870 
	C5844.470215,741.137268 5876.222168,779.960571 5908.000488,818.762451 
	C5947.356445,866.816406 5986.738770,914.848877 6026.101074,962.897949 
	C6043.992676,984.738037 6061.878906,1006.582336 6079.710449,1028.471436 
	C6081.093750,1030.169800 6082.019531,1032.240479 6083.158203,1034.138062 
	C6083.979492,1033.611572 6084.800293,1033.085083 6085.621582,1032.558472 
	C6085.621582,900.141663 6085.621582,767.724792 6085.621582,634.821045 
	C6136.382812,634.821045 6186.256836,634.821045 6236.145020,634.821045 
	C6238.257324,642.469971 6239.298828,1265.672363 6237.192383,1296.787720 
	C6235.139160,1297.069214 6232.951660,1297.627441 6230.763672,1297.630615 
	C6193.101074,1297.684326 6155.437012,1297.531494 6117.776367,1297.824707 
	C6112.378418,1297.866699 6109.466309,1295.804932 6106.276855,1291.910278 
	C6064.395020,1240.770752 6022.282227,1189.821045 5980.342285,1138.729248 
	C5915.434082,1059.658203 5850.615234,980.513855 5785.744629,901.411682 
	C5785.002441,900.506897 5784.081543,899.749084 5781.670410,897.369629 
	C5781.670410,965.646362 5781.670410,1031.809326 5781.670410,1097.972290 
	C5781.670410,1164.204346 5781.670410,1230.436279 5781.670410,1297.166748 
	C5730.845215,1297.166748 5680.992676,1297.166748 5630.399902,1297.166748 
	C5630.399902,1076.498901 5630.399902,855.818665 5630.399902,634.734009 
	C5672.641602,634.734009 5714.551758,634.734009 5756.975098,634.734009 
	C5775.062500,656.695801 5793.413574,678.977966 5812.235840,701.791870 
z"/>
<path fill="#FEFEFE" opacity="1.000000" stroke="none" 
	d="
M4880.000000,634.328735 
	C4905.633301,634.328735 4930.266113,634.328735 4954.822754,634.328735 
	C5053.578613,855.199463 5152.079590,1075.499512 5250.634277,1295.920776 
	C5241.750488,1298.328491 5132.670410,1299.183105 5089.359863,1297.337280 
	C5070.015137,1250.743408 5050.456543,1203.633789 5030.737793,1156.138916 
	C4928.803711,1156.138916 4826.902832,1156.138916 4724.020508,1156.138916 
	C4704.548828,1202.911255 4684.930176,1250.037476 4665.263184,1297.279419 
	C4612.787109,1297.279419 4560.603027,1297.279419 4507.197266,1297.279419 
	C4605.889160,1075.860596 4704.232910,855.223022 4802.691406,634.328735 
	C4828.373535,634.328735 4853.686523,634.328735 4880.000000,634.328735 
M4894.879883,828.120239 
	C4889.195312,815.051086 4884.751953,801.402893 4877.224121,787.598145 
	C4842.171387,871.922424 4807.814453,954.571960 4773.166504,1037.922241 
	C4843.220703,1037.922241 4912.035645,1037.922241 4981.752930,1037.922241 
	C4973.027344,1016.769348 4964.590820,996.275513 4956.121582,975.795288 
	C4935.953125,927.021606 4915.769043,878.254333 4894.879883,828.120239 
z"/>
<path fill="#FEFEFE" opacity="1.000000" stroke="none" 
	d="
M2503.504639,968.489136 
	C2455.429688,857.200073 2407.690674,746.598267 2359.550049,635.065308 
	C2415.400879,635.065308 2470.404785,635.065308 2526.259766,635.065308 
	C2592.733643,791.172119 2659.437744,947.819641 2726.949463,1106.363525 
	C2795.343750,948.152405 2863.050537,791.532227 2930.862305,634.668579 
	C2981.592529,634.668579 3032.209717,634.668579 3084.206055,634.668579 
	C2988.475342,855.831116 2892.931885,1076.560669 2797.355469,1297.366211 
	C2746.901367,1297.366211 2696.942139,1297.366211 2645.896484,1297.366211 
	C2644.836670,1295.353027 2643.311523,1292.875610 2642.172852,1290.231689 
	C2607.904053,1210.651489 2573.687988,1131.048828 2539.429199,1051.464355 
	C2527.613281,1024.015015 2515.706299,996.604614 2503.504639,968.489136 
z"/>
<path fill="#FDFDFD" opacity="1.000000" stroke="none" 
	d="
M3935.673828,1220.000244 
	C3935.673828,1246.231323 3935.673828,1271.462280 3935.673828,1297.177002 
	C3772.923828,1297.177002 3611.163818,1297.177002 3448.864746,1297.177002 
	C3448.864746,1076.355591 3448.864746,855.942993 3448.864746,634.928345 
	C3500.222900,634.928345 3551.343262,634.928345 3603.343018,634.928345 
	C3603.343018,813.547302 3603.343018,991.996765 3603.343018,1171.401123 
	C3714.332275,1171.401123 3824.451416,1171.401123 3935.673828,1171.401123 
	C3935.673828,1187.889526 3935.673828,1203.444946 3935.673828,1220.000244 
z"/>
<path fill="#FEFEFE" opacity="1.000000" stroke="none" 
	d="
M4019.660645,775.999817 
	C4019.660645,728.425537 4019.660645,681.851318 4019.660645,634.806458 
	C4071.082764,634.806458 4121.618652,634.806458 4173.500488,634.806458 
	C4173.861328,649.584595 4173.618164,664.437988 4173.661133,679.279236 
	C4173.704590,694.276306 4173.670898,709.273560 4173.670898,724.270752 
	C4173.670898,738.934631 4173.670898,753.598572 4173.670898,768.262451 
	C4173.670898,783.259644 4173.670898,798.256775 4173.670898,813.253967 
	C4173.670898,828.251160 4173.670898,843.248291 4173.670898,858.245483 
	C4173.670898,873.242676 4173.670898,888.239807 4173.670898,903.237000 
	C4173.670898,917.900879 4173.670898,932.564819 4173.670898,947.228699 
	C4173.670898,962.225891 4173.670898,977.223022 4173.670898,992.220215 
	C4173.670898,1007.217346 4173.670898,1022.214539 4173.670898,1037.211670 
	C4173.670898,1052.208862 4173.670898,1067.206055 4173.670898,1082.203247 
	C4173.670898,1096.867188 4173.670898,1111.531006 4173.670898,1126.194946 
	C4173.670898,1141.087280 4173.670898,1155.979614 4173.670898,1171.554688 
	C4284.895508,1171.554688 4395.067871,1171.554688 4505.807617,1171.554688 
	C4505.807617,1213.729980 4505.807617,1255.204224 4505.807617,1297.175293 
	C4344.318359,1297.175293 4182.799316,1297.175293 4021.134277,1297.175293 
	C4021.017822,1297.083862 4020.723145,1296.907715 4020.502441,1296.664307 
	C4020.295654,1296.436157 4020.024902,1296.136719 4020.024658,1295.868408 
	C4019.889648,1122.912231 4019.775391,949.956055 4019.660645,775.999817 
z"/>
<path fill="#FEFEFE" opacity="1.000000" stroke="none" 
	d="
M5472.339844,946.000183 
	C5472.339844,1063.548706 5472.339844,1180.097290 5472.339844,1297.157349 
	C5421.018066,1297.157349 5370.486328,1297.157349 5319.906738,1297.157349 
	C5317.937012,1290.539673 5317.241699,649.661255 5319.310059,634.867188 
	C5369.734863,634.867188 5420.239746,634.867188 5470.921387,634.867188 
	C5471.008301,634.935425 5471.305176,635.110168 5471.522461,635.355469 
	C5471.726562,635.585449 5471.982910,635.890259 5471.982910,636.162415 
	C5472.115234,739.108337 5472.227539,842.054199 5472.339844,946.000183 
z"/>
<path fill="#FEFEFE" opacity="1.000000" stroke="none" 
	d="
M3176.001465,634.329346 
	C3214.945801,634.329346 3252.890625,634.329346 3290.709473,634.329346 
	C3292.684082,641.788635 3293.289307,1283.588745 3291.390869,1297.191528 
	C3240.932861,1297.191528 3190.404541,1297.191528 3139.862793,1297.191528 
	C3137.949707,1290.314697 3137.405273,647.842957 3139.466064,634.329346 
	C3151.194824,634.329346 3163.098145,634.329346 3176.001465,634.329346 
z"/>
<path fill="#010101" opacity="1.000000" stroke="none" 
	d="
M823.539734,711.999695 
	C823.540100,672.344849 823.561829,633.690125 823.532043,595.035339 
	C823.516724,575.175354 832.140869,560.377502 849.835144,551.432434 
	C879.783691,536.292358 915.774048,557.161011 917.881531,590.656860 
	C918.069641,593.645630 917.998230,596.652588 917.998291,599.651062 
	C918.002869,832.246033 917.991821,1064.841064 918.045410,1297.436035 
	C918.047363,1305.841553 917.537048,1314.043823 914.138428,1321.881226 
	C905.161194,1342.583008 883.065247,1354.134277 860.912109,1349.625122 
	C839.831299,1345.334106 824.320129,1326.745605 823.580017,1304.816895 
	C823.456421,1301.155396 823.540894,1297.486572 823.540833,1293.821167 
	C823.539673,1100.213989 823.539734,906.606873 823.539734,711.999695 
z"/>
<path fill="#040404" opacity="1.000000" stroke="none" 
	d="
M1163.659424,1226.686279 
	C1146.218384,1216.448608 1138.571289,1201.523315 1138.571533,1182.335571 
	C1138.573364,1013.353271 1138.538086,844.370911 1138.601685,675.388611 
	C1138.613037,645.227722 1160.068481,624.113220 1188.792725,625.530701 
	C1213.089844,626.729736 1231.875977,645.877686 1233.364502,671.004456 
	C1233.502197,673.329956 1233.417725,675.669250 1233.417725,678.002136 
	C1233.419434,845.317993 1233.393188,1012.633850 1233.473145,1179.949707 
	C1233.479004,1192.295654 1231.201294,1203.708862 1223.573730,1213.758667 
	C1210.839478,1230.536987 1186.272217,1238.222412 1163.659424,1226.686279 
z"/>
<path fill="#010101" opacity="1.000000" stroke="none" 
	d="
M760.171143,1084.000000 
	C760.167419,1105.659546 760.390198,1126.322266 760.098328,1146.977783 
	C759.784912,1169.156372 743.224548,1188.413086 721.929077,1192.014771 
	C698.811829,1195.924683 676.578308,1183.881592 669.002380,1162.467163 
	C666.732971,1156.052246 665.976990,1148.805542 665.958496,1141.936035 
	C665.753113,1065.629639 665.828674,989.322327 665.828918,913.015259 
	C665.829163,846.704712 665.895996,780.394104 665.762146,714.083801 
	C665.741333,703.757935 667.963989,694.296692 673.705933,685.722412 
	C685.240356,668.498657 706.416931,660.798584 726.342529,666.533020 
	C745.983093,672.185547 760.049011,690.299011 760.100708,711.128296 
	C760.266968,778.104858 760.168945,845.082092 760.170837,912.059021 
	C760.172363,969.039368 760.171143,1026.019653 760.171143,1084.000000 
z"/>
<path fill="#040404" opacity="1.000000" stroke="none" 
	d="
M1007.027344,748.572876 
	C1039.677734,733.125183 1076.174683,756.078857 1075.941895,794.080505 
	C1075.390747,884.059570 1075.795410,974.044373 1075.743164,1064.026855 
	C1075.728882,1088.685059 1061.862671,1107.047363 1039.328857,1112.676636 
	C1012.356628,1119.414673 985.103516,1100.821045 981.655334,1073.257446 
	C981.201721,1069.631470 980.990173,1065.951294 980.988708,1062.296021 
	C980.952881,973.313354 981.059326,884.330444 980.886475,795.348083 
	C980.846863,774.947510 988.304810,759.159790 1007.027344,748.572876 
z"/>
<path fill="#040404" opacity="1.000000" stroke="none" 
	d="
M1296.234741,902.000488 
	C1296.244629,890.019775 1295.903687,879.024963 1296.336426,868.060791 
	C1297.275879,844.259155 1315.028687,825.393799 1338.753418,822.475952 
	C1360.447510,819.807861 1382.032227,833.917114 1388.611572,855.509827 
	C1390.138550,860.520813 1390.899170,865.957153 1390.925293,871.203125 
	C1391.115479,909.469238 1391.085083,947.736816 1391.003906,986.003662 
	C1390.964233,1004.753235 1383.436890,1019.616333 1366.907959,1029.029785 
	C1335.362671,1046.995361 1296.890625,1024.639282 1296.325317,987.852051 
	C1295.890747,959.574341 1296.236206,931.284729 1296.234741,902.000488 
z"/>
<path fill="#020202" opacity="1.000000" stroke="none" 
	d="
M507.992920,878.150879 
	C508.034790,873.516296 507.897736,869.844543 508.147247,866.199280 
	C509.847473,841.362061 531.454346,821.677307 556.289856,822.253906 
	C581.054565,822.828735 601.902954,842.461548 602.240540,867.127441 
	C602.800598,908.047241 602.775635,948.984558 602.275208,989.905762 
	C601.963135,1015.424683 580.128418,1035.713135 554.823975,1035.380127 
	C529.840698,1035.051147 509.001587,1015.007874 508.129150,989.927795 
	C507.655151,976.301147 508.000366,962.645691 507.995239,949.003235 
	C507.986511,925.710815 507.992859,902.418396 507.992920,878.150879 
z"/>
<path fill="#010101" opacity="1.000000" stroke="none" 
	d="
M4895.235840,828.802368 
	C4915.769043,878.254333 4935.953125,927.021606 4956.121582,975.795288 
	C4964.590820,996.275513 4973.027344,1016.769348 4981.752930,1037.922241 
	C4912.035645,1037.922241 4843.220703,1037.922241 4773.166504,1037.922241 
	C4807.814453,954.571960 4842.171387,871.922424 4877.224121,787.598145 
	C4884.751953,801.402893 4889.195312,815.051086 4895.235840,828.802368 
z"/>
</svg>