<svg width="6318" height="1892" viewBox="0 0 6318 1892" fill="none" xmlns="http://www.w3.org/2000/svg">
<g clip-path="url(#clip0_57_3)">
<path d="M1013.06 2C1011.4 4.32098 1013.15 5.55129 1015.32 5.74728C1021.63 6.31389 1028.01 6.10417 1034.27 6.92942C1058.68 10.1488 1083.01 13.985 1107.45 16.9743C1152.63 22.5014 1195.9 36.1516 1239.36 48.5557C1265.19 55.9289 1289.8 67.5305 1315.11 76.8236C1342.74 86.9699 1368.22 101.534 1394.23 114.961C1450.06 143.789 1501.29 179.474 1550.22 218.909C1587.5 248.953 1621.69 282.195 1653.43 317.57C1688.52 356.688 1720.19 398.753 1748.46 443.437C1773.14 482.435 1794.81 522.991 1813.43 564.863C1834.36 611.921 1851.3 660.669 1864.33 710.816C1875.01 751.896 1881.93 793.501 1887.72 835.325C1891.28 860.991 1891.78 887.076 1893.76 912.964C1897.24 958.337 1892.94 1003.53 1889.71 1048.66C1888.03 1072.15 1882.48 1095.34 1879.13 1118.74C1873.2 1160.1 1861.67 1200.26 1848.84 1239.67C1834.76 1282.9 1819.15 1325.96 1797.07 1366.13C1792.09 1375.18 1787.37 1384.37 1782.99 1393.72C1766.52 1428.9 1743.84 1460.33 1722.33 1492.35C1707.7 1514.13 1690.61 1534.31 1674.07 1554.75C1631.75 1607.06 1582.97 1652.71 1530.02 1694.1C1481.57 1731.97 1429.65 1764.06 1375.06 1792.37C1332.59 1814.39 1288.4 1832.23 1243.28 1846.98C1198.49 1861.61 1152.85 1874.54 1105.66 1880.27C1087.83 1882.44 1070.17 1886 1052.36 1888.43C1043.49 1889.64 1034.45 1889.6 1025.5 1890.39C1021.97 1890.7 1018.5 1891.74 1015.5 1893.23C971.958 1894 927.916 1894 883.456 1893.23C880.889 1891.8 878.736 1890.55 876.593 1890.57C856.158 1890.73 836.161 1887.1 816.113 1883.89C794.423 1880.41 772.319 1878.52 751.134 1873.07C705.1 1861.22 659.117 1849.33 614.438 1832.33C567.244 1814.38 521.763 1792.94 478.27 1767.94C438.532 1745.1 400.436 1719.32 364.212 1690.71C322.188 1657.51 283.165 1621.16 247.532 1581.62C215.503 1546.09 185.894 1508.29 159.844 1467.73C125.714 1414.58 96.2306 1359.3 72.6153 1300.73C49.6358 1243.74 32.1498 1185.17 21.0489 1124.81C12.6788 1079.29 5.67716 1033.52 5.66077 987.016C5.65984 984.368 5.3413 981.689 4.80881 979.099C4.69852 978.563 2.97826 978.358 2 978C2 959.292 2 940.583 2.81711 921.232C4.34327 916.423 5.42883 912.281 5.69997 908.086C7.39513 881.86 7.41777 855.551 11.7971 829.482C18.6853 788.478 24.8139 747.443 35.7794 707.139C51.6482 648.814 71.8312 592.261 98.403 538.01C108.799 516.784 118.431 494.979 130.978 475.054C156.508 434.514 182.351 394.217 212.531 356.668C244.401 317.018 279.185 280.195 316.688 246.324C351.945 214.483 389.471 185.08 429.728 159.183C480.299 126.65 532.698 97.9687 588.361 75.3323C611.787 65.8054 635.093 55.4341 659.342 48.5943C703.155 36.2358 746.766 22.7781 792.201 16.7272C825.514 12.2905 858.537 5.58875 892.343 5.64455C895.319 5.64946 898.313 5.19651 901.252 4.68363C901.645 4.61493 901.757 2.93422 902 2C938.708 2 975.417 2 1013.06 2ZM829.772 1326.9C830.861 1328.57 831.822 1330.35 833.06 1331.9C845.487 1347.5 861.94 1353.47 881.038 1349.28C900.242 1345.06 912.405 1332.37 916.778 1313.02C917.935 1307.89 917.955 1302.44 917.957 1297.14C918.01 1064.82 918.003 832.488 918 600.16C918 597.16 918.07 594.154 917.909 591.162C916.074 557.148 879.644 536.048 849.379 551.681C831.726 560.799 823.48 575.74 823.51 595.571C823.596 652.57 823.54 709.569 823.54 766.567C823.54 943.564 823.558 1120.56 823.49 1297.56C823.487 1307.34 824.034 1316.87 829.772 1326.9ZM1138.57 793C1138.57 920.939 1138.57 1048.88 1138.57 1176.82C1138.57 1180.15 1138.44 1183.49 1138.64 1186.81C1139.99 1208.75 1154.49 1226.16 1175.48 1231.19C1194.89 1235.83 1215.59 1227.07 1226.34 1209.7C1231.99 1200.58 1233.46 1190.57 1233.46 1180.04C1233.4 1012.79 1233.42 845.533 1233.42 678.278C1233.42 675.613 1233.52 672.937 1233.33 670.285C1230.94 637.806 1199.43 617.057 1169.45 628.189C1150.42 635.256 1138.65 652.923 1138.6 675.054C1138.5 713.702 1138.57 752.351 1138.57 793ZM665.829 735.004C665.829 869.292 665.828 1003.58 665.83 1137.87C665.83 1141.2 665.754 1144.53 665.877 1147.86C667.006 1178.42 697.34 1199.69 726.688 1190.84C748.49 1184.26 760.433 1162.97 760.351 1144.05C759.95 1051.08 760.172 958.115 760.171 865.146C760.17 813.831 760.338 762.514 760.09 711.199C759.964 685.057 738.466 664.333 712.592 664.599C687.038 664.862 666.387 685.325 665.858 711.015C665.708 718.342 665.831 725.676 665.829 735.004ZM980.961 1023C981.128 1039.31 980.204 1055.73 981.686 1071.92C985.002 1108.15 1026.72 1126.43 1056.11 1105C1069.08 1095.54 1075.68 1082.41 1075.7 1066.44C1075.82 974.841 1075.76 883.243 1075.76 791.646C1075.76 790.647 1075.78 789.645 1075.72 788.649C1074.33 765.61 1056.63 746.39 1034.57 743.962C1010.79 741.343 989.494 754.897 983.154 777.423C981.383 783.712 981.061 790.57 981.049 797.168C980.91 871.778 980.961 946.389 980.961 1023ZM1373.75 833.151C1362.74 824.489 1350.34 820.525 1336.41 822.921C1312.51 827.033 1296.56 845.989 1296.28 870.517C1296.08 888.169 1296.23 905.826 1296.23 923.48C1296.24 945.132 1295.89 966.791 1296.33 988.433C1296.92 1017.64 1322.38 1038.98 1350.67 1034.54C1374.78 1030.76 1390.71 1012.17 1390.94 986.265C1391.28 947.961 1391.04 909.652 1391.02 871.345C1391.02 856.603 1385.98 844.01 1373.75 833.151ZM572.806 825.757C542.406 813.002 506.817 836.355 507.906 872.237C508.422 889.205 507.989 906.201 507.994 923.184C508 945.161 507.638 967.147 508.117 989.115C508.74 1017.7 534.072 1038.8 562.003 1034.6C585.925 1031 602.252 1012.35 602.401 987.614C602.632 949.321 602.259 911.024 602.545 872.731C602.705 851.168 593.483 835.79 572.806 825.757Z" fill="white"/>
<path d="M5921.62 836.357C5975.88 902.569 6029.7 968.23 6083.52 1033.89C6084.19 1033.73 6084.86 1033.57 6085.54 1033.41C6085.98 1019.02 6085.68 1004.61 6085.74 990.203C6085.79 975.207 6085.75 960.211 6085.75 945.214C6085.75 930.551 6085.75 915.888 6085.75 901.224C6085.75 886.561 6085.75 871.898 6085.75 857.235C6085.75 842.238 6085.75 827.242 6085.75 812.245C6085.75 797.582 6085.75 782.919 6085.75 768.256C6085.75 753.593 6085.75 738.929 6085.75 724.266C6085.75 709.27 6085.75 694.273 6085.75 679.277C6085.75 664.71 6085.75 650.144 6085.75 635.078C6136.35 635.078 6185.85 635.078 6236.02 635.078C6236.02 855.326 6236.02 1075.12 6236.02 1295.64C6234.13 1295.96 6231.96 1296.63 6229.78 1296.64C6192.46 1296.7 6155.13 1296.53 6117.81 1296.85C6111.88 1296.9 6108.74 1294.12 6105.46 1290.12C6073.8 1251.44 6042.05 1212.84 6010.33 1174.21C5936.31 1084.09 5862.3 993.955 5788.27 903.842C5786.66 901.893 5784.84 900.127 5781.28 898.774C5781.28 1031.09 5781.28 1163.41 5781.28 1296.21C5730.4 1296.21 5680.82 1296.21 5630.5 1296.21C5630.5 1076.06 5630.5 855.972 5630.5 635.224C5632.99 635.005 5635.56 634.587 5638.13 634.584C5674.79 634.541 5711.45 634.682 5748.1 634.424C5754.05 634.383 5757.91 636.387 5761.59 640.893C5814.7 705.931 5867.95 770.855 5921.62 836.357Z" fill="#FEFEFE"/>
<path d="M4777.04 692.983C4785.91 673.201 4794.43 654.093 4803.14 634.55C4806.65 634.55 4809.6 634.55 4812.56 634.55C4856.56 634.55 4900.56 634.736 4944.55 634.369C4952.04 634.307 4955.52 636.838 4958.53 643.565C5054.06 857.644 5149.81 1071.63 5245.51 1285.64C5246.83 1288.61 5247.85 1291.72 5249.02 1294.8C5241.4 1297.09 5108.39 1297.97 5089.31 1295.91C5070.13 1249.68 5050.76 1203 5031.17 1155.79C4928.9 1155.79 4826.71 1155.79 4723.66 1155.79C4704.3 1202.27 4684.86 1248.94 4665.22 1296.1C4613.6 1296.1 4562.06 1296.1 4508.97 1296.1C4510.39 1292.29 4511.42 1289.01 4512.8 1285.89C4539.48 1225.96 4566.2 1166.05 4592.9 1106.12C4654.17 968.637 4715.43 831.147 4777.04 692.983ZM4824.35 913.386C4820.03 923.847 4815.73 934.316 4811.39 944.765C4807.17 954.907 4802.89 965.021 4798.67 975.161C4794.32 985.609 4789.92 996.037 4785.72 1006.54C4781.62 1016.8 4776.45 1026.7 4773.39 1037.88C4843.56 1037.88 4912.37 1037.88 4982.38 1037.88C4947.58 953.893 4913.16 870.803 4878.74 787.713C4878.04 787.772 4877.33 787.832 4876.63 787.891C4859.41 829.257 4842.19 870.622 4824.35 913.386Z" fill="#FEFEFE"/>
<path d="M2848.34 1178.4C2831.25 1217.89 2814.44 1256.68 2797.39 1296.02C2746.88 1296.02 2696.4 1296.02 2645.29 1296.02C2550.39 1076.05 2455.5 856.087 2360.18 635.148C2415.92 635.148 2470.38 635.148 2525.71 635.148C2592.43 791.791 2659.28 948.765 2726.84 1107.38C2731.01 1097.98 2734.43 1090.43 2737.72 1082.82C2800.7 937.045 2863.67 791.26 2926.64 645.478C2927.57 643.339 2928.71 641.283 2929.48 639.093C2930.64 635.795 2932.81 634.275 2936.28 634.552C2936.94 634.604 2937.61 634.552 2938.28 634.552C2984.93 634.563 3031.59 634.571 3078.24 634.604C3079.22 634.604 3080.2 634.88 3081.36 635.054C3083.4 639.041 3080.43 642.05 3079.1 645.157C3055.93 698.977 3032.66 752.754 3009.38 806.524C2955.8 930.25 2902.2 1053.97 2848.34 1178.4Z" fill="#FEFEFE"/>
<path d="M4334 1172C4391.56 1172 4448.13 1172 4505.22 1172C4505.22 1213.91 4505.22 1254.72 4505.22 1296.11C4343.57 1296.11 4182.43 1296.11 4020.73 1296.11C4020.73 1075.77 4020.73 855.906 4020.73 635.297C4071.26 635.297 4121.73 635.297 4173.31 635.297C4173.31 813.774 4173.31 992.225 4173.31 1172C4227.27 1172 4280.13 1172 4334 1172Z" fill="#FEFEFE"/>
<path d="M3449.57 1160C3449.57 984.733 3449.57 810.467 3449.57 636.392C3457.07 634.157 3590.2 633.668 3602.44 635.841C3602.44 814.079 3602.44 992.516 3602.44 1171.85C3713.35 1171.85 3823.17 1171.85 3933.7 1171.85C3933.7 1213.53 3933.7 1254.32 3933.7 1295.13C3926.65 1297.07 3462.69 1297.59 3449.57 1295.47C3449.57 1250.78 3449.57 1205.89 3449.57 1160Z" fill="white"/>
<path d="M3138.87 942C3138.87 839.167 3138.87 737.334 3138.87 635.031C3190.44 635.031 3240.6 635.031 3291.47 635.031C3291.47 855.41 3291.47 1075.41 3291.47 1296.05C3240.82 1296.05 3190.39 1296.05 3138.87 1296.05C3138.87 1178.08 3138.87 1060.54 3138.87 942Z" fill="white"/>
<path d="M5348.01 1296.69C5338.37 1296.69 5329.73 1296.69 5321.25 1296.69C5319.08 1289.33 5318.25 651.319 5320.32 635.244C5370.38 635.244 5420.53 635.244 5470.69 635.244C5472.72 642.227 5473.52 1278.79 5471.35 1296.69C5430.69 1296.69 5389.85 1296.69 5348.01 1296.69Z" fill="white"/>
<path d="M829.373 1326.26C824.034 1316.87 823.486 1307.34 823.49 1297.56C823.558 1120.56 823.539 943.563 823.539 766.567C823.539 709.568 823.595 652.57 823.509 595.571C823.48 575.739 831.726 560.799 849.379 551.68C879.644 536.048 916.074 557.148 917.909 591.162C918.07 594.154 918 597.16 918 600.16C918.003 832.488 918.01 1064.82 917.956 1297.14C917.955 1302.44 917.935 1307.89 916.778 1313.02C912.405 1332.37 900.242 1345.06 881.038 1349.28C861.94 1353.47 845.487 1347.5 833.06 1331.9C831.822 1330.35 830.861 1328.57 829.373 1326.26Z" fill="#010101"/>
<path d="M1138.57 792C1138.57 752.351 1138.5 713.703 1138.6 675.054C1138.65 652.923 1150.42 635.256 1169.45 628.189C1199.43 617.057 1230.94 637.806 1233.33 670.285C1233.53 672.937 1233.42 675.613 1233.42 678.278C1233.42 845.533 1233.4 1012.79 1233.46 1180.04C1233.46 1190.57 1231.99 1200.58 1226.34 1209.7C1215.59 1227.07 1194.89 1235.84 1175.48 1231.19C1154.49 1226.16 1139.99 1208.75 1138.64 1186.81C1138.44 1183.49 1138.57 1180.15 1138.57 1176.82C1138.57 1048.88 1138.57 920.939 1138.57 792Z" fill="#040404"/>
<path d="M665.828 734.005C665.831 725.676 665.708 718.342 665.858 711.015C666.387 685.325 687.037 664.862 712.592 664.599C738.466 664.333 759.963 685.057 760.09 711.199C760.338 762.514 760.17 813.831 760.171 865.146C760.172 958.115 759.95 1051.08 760.351 1144.05C760.433 1162.97 748.49 1184.26 726.688 1190.84C697.34 1199.69 667.006 1178.42 665.876 1147.86C665.753 1144.53 665.83 1141.2 665.83 1137.87C665.828 1003.58 665.829 869.292 665.828 734.005Z" fill="#010101"/>
<path d="M980.96 1022C980.96 946.389 980.909 871.778 981.048 797.168C981.061 790.57 981.383 783.712 983.153 777.423C989.494 754.897 1010.79 741.343 1034.57 743.962C1056.63 746.39 1074.33 765.61 1075.72 788.649C1075.78 789.645 1075.76 790.647 1075.76 791.646C1075.76 883.243 1075.82 974.841 1075.7 1066.44C1075.68 1082.41 1069.08 1095.54 1056.11 1105C1026.71 1126.43 985.001 1108.15 981.685 1071.92C980.203 1055.73 981.128 1039.31 980.96 1022Z" fill="#040404"/>
<path d="M1374.31 833.61C1385.98 844.01 1391.02 856.603 1391.02 871.345C1391.04 909.652 1391.28 947.961 1390.94 986.265C1390.71 1012.17 1374.78 1030.76 1350.67 1034.54C1322.38 1038.98 1296.92 1017.64 1296.33 988.433C1295.89 966.79 1296.24 945.132 1296.24 923.48C1296.24 905.825 1296.08 888.169 1296.28 870.517C1296.56 845.989 1312.51 827.033 1336.41 822.921C1350.34 820.525 1362.74 824.489 1374.31 833.61Z" fill="#040404"/>
<path d="M573.541 826C593.482 835.79 602.705 851.168 602.544 872.731C602.259 911.023 602.631 949.321 602.4 987.614C602.251 1012.35 585.925 1031 562.003 1034.6C534.071 1038.8 508.74 1017.7 508.117 989.115C507.638 967.147 507.999 945.161 507.993 923.183C507.989 906.2 508.421 889.204 507.906 872.237C506.816 836.354 542.405 813.001 573.541 826Z" fill="#020202"/>
</g>
<defs>
<clipPath id="clip0_57_3">
<rect width="6318" height="1892" fill="white"/>
</clipPath>
</defs>
</svg>
